<svg width="17" height="17" viewBox="0 0 17 17" fill="none" xmlns="http://www.w3.org/2000/svg">
<path d="M8.5 0.265625C3.95117 0.265625 0.265625 3.95117 0.265625 8.5C0.265625 13.0488 3.95117 16.7344 8.5 16.7344C13.0488 16.7344 16.7344 13.0488 16.7344 8.5C16.7344 3.95117 13.0488 0.265625 8.5 0.265625ZM11.571 10.6582L10.9069 11.4883C10.8633 11.5428 10.8094 11.5881 10.7483 11.6218C10.6872 11.6555 10.6201 11.6767 10.5507 11.6845C10.4814 11.6922 10.4112 11.6861 10.3442 11.6667C10.2772 11.6473 10.2146 11.6149 10.1602 11.5713L7.93555 9.92043C7.78011 9.79598 7.65464 9.63817 7.56843 9.45868C7.48222 9.27919 7.43748 9.08262 7.4375 8.8835V3.71875C7.4375 3.57785 7.49347 3.44273 7.5931 3.3431C7.69273 3.24347 7.82785 3.1875 7.96875 3.1875H9.03125C9.17215 3.1875 9.30727 3.24347 9.4069 3.3431C9.50653 3.44273 9.5625 3.57785 9.5625 3.71875V8.5L11.4883 9.91113C11.5428 9.95474 11.5882 10.0087 11.6218 10.0698C11.6555 10.131 11.6768 10.1982 11.6844 10.2675C11.6921 10.3369 11.686 10.4071 11.6666 10.4742C11.6471 10.5412 11.6146 10.6037 11.571 10.6582Z" fill="#CE2525"/>
</svg>
