<svg width="31" height="30" viewBox="0 0 31 30" fill="none" xmlns="http://www.w3.org/2000/svg">
<g clip-path="url(#clip0)">
<path d="M15.2008 4.65982e-08C13.2309 -0.000155219 11.2804 0.387701 9.46039 1.14142C7.64044 1.89514 5.98679 2.99997 4.59384 4.39281C3.20089 5.78565 2.09594 7.43922 1.34208 9.25911C0.588205 11.079 0.200195 13.0296 0.200195 14.9994V15.0065C0.20004 16.9754 0.587713 18.9251 1.34108 20.7442C2.09445 22.5633 3.19875 24.2161 4.59093 25.6084C5.98311 27.0007 7.6359 28.1052 9.45493 28.8587C11.274 29.6122 13.2236 30 15.1925 30H15.2067C17.1756 30.0002 19.1253 29.6125 20.9444 28.8591C22.7635 28.1058 24.4163 27.0015 25.8086 25.6093C27.2009 24.2171 28.3054 22.5643 29.0589 20.7453C29.8124 18.9262 30.2002 16.9766 30.2002 15.0077V15.0006C30.2004 13.0307 29.8125 11.0802 29.0588 9.2602C28.3051 7.44025 27.2002 5.78659 25.8074 4.39364C24.4146 3.00069 22.761 1.89574 20.9411 1.14188C19.1212 0.38801 17.1706 4.04791e-08 15.2008 4.65982e-08ZM19.9299 9.31862H18.2168C16.8713 9.31862 16.6112 9.95823 16.6112 10.8958V12.9647H19.8258L19.4085 16.2053H16.6183V24.5202H13.2725V16.2053H10.467V12.9659H13.2642V10.5766C13.2642 7.80296 14.9572 6.2932 17.4317 6.2932C18.2669 6.29035 19.1017 6.33297 19.9322 6.42089L19.9299 9.31862Z" fill="#4368B1"/>
</g>
<defs>
<clipPath id="clip0">
<rect width="30" height="30" fill="white" transform="translate(0.200195)"/>
</clipPath>
</defs>
</svg>
