<svg width="32" height="32" viewBox="0 0 32 32" fill="none" xmlns="http://www.w3.org/2000/svg">
<g clip-path="url(#clip0)">
<path d="M16.0037 1.42224C7.96205 1.42224 1.41553 7.96446 1.41553 16C1.41553 24.0356 7.9592 30.5778 16.0037 30.5778C24.0481 30.5778 30.5847 24.0356 30.5847 16C30.5847 7.96446 24.0446 1.42224 16.0037 1.42224Z" fill="white"/>
<path d="M27.344 4.74239L27.2878 4.68622C25.8091 3.1942 24.048 2.01144 22.1074 1.20687C20.1667 0.402305 18.0852 -0.00796157 15.9844 -8.62353e-06C7.15679 -8.62353e-06 0 7.15591 0 15.9879C0.000143656 20.2262 1.68353 24.291 4.68015 27.2889C10.9109 33.5467 21.0294 33.5744 27.2878 27.3451C33.5463 21.1157 33.5719 11.0002 27.344 4.74239ZM15.9844 30.5657C7.94345 30.5657 1.39622 24.0277 1.39622 15.9879C1.39622 7.94808 7.9399 1.40301 15.9844 1.40301C24.0288 1.40301 30.5654 7.94097 30.5654 15.9808C30.5654 24.0206 24.0252 30.5657 15.9844 30.5657Z" fill="#013464"/>
<path d="M18.8153 19.4461H14.4765V17.4386H16.9169C17.5696 17.4386 18.216 17.31 18.8191 17.0603C19.4222 16.8106 19.9701 16.4445 20.4317 15.983C20.8933 15.5216 21.2594 14.9737 21.5092 14.3708C21.759 13.7678 21.8876 13.1216 21.8876 12.469C21.8876 11.8164 21.759 11.1701 21.5092 10.5672C21.2594 9.96427 20.8933 9.41642 20.4317 8.95495C19.9701 8.49348 19.4222 8.12742 18.8191 7.87768C18.216 7.62793 17.5696 7.49939 16.9169 7.49939H13.7596C13.5687 7.49958 13.3857 7.57546 13.2508 7.71038C13.1158 7.8453 13.0399 8.02823 13.0397 8.21903V16H11.2317C11.0448 16.0059 10.8675 16.0842 10.7374 16.2185C10.6073 16.3527 10.5345 16.5324 10.5345 16.7193C10.5345 16.9062 10.6073 17.0859 10.7374 17.2201C10.8675 17.3544 11.0448 17.4327 11.2317 17.4386H13.0405V19.4461H10.8298C10.7334 19.443 10.6374 19.4594 10.5475 19.4942C10.4576 19.529 10.3755 19.5815 10.3063 19.6485C10.237 19.7156 10.182 19.796 10.1444 19.8847C10.1068 19.9735 10.0874 20.0689 10.0874 20.1653C10.0874 20.2618 10.1068 20.3572 10.1444 20.446C10.182 20.5347 10.237 20.6151 10.3063 20.6821C10.3755 20.7492 10.4576 20.8017 10.5475 20.8365C10.6374 20.8713 10.7334 20.8877 10.8298 20.8846H13.0405V23.4965C13.0463 23.6834 13.1247 23.8606 13.259 23.9907C13.3933 24.1208 13.5729 24.1936 13.7599 24.1936C13.9469 24.1936 14.1265 24.1208 14.2608 23.9907C14.3951 23.8606 14.4735 23.6834 14.4794 23.4965V20.8846H18.8181C18.9145 20.8877 19.0105 20.8713 19.1004 20.8365C19.1904 20.8017 19.2724 20.7492 19.3416 20.6821C19.4109 20.6151 19.466 20.5347 19.5036 20.446C19.5412 20.3572 19.5605 20.2618 19.5605 20.1653C19.5605 20.0689 19.5412 19.9735 19.5036 19.8847C19.466 19.796 19.4109 19.7156 19.3416 19.6485C19.2724 19.5815 19.1904 19.529 19.1004 19.4942C19.0105 19.4594 18.9145 19.443 18.8181 19.4461H18.8153ZM14.4765 8.93797H16.9169C17.8536 8.93797 18.7519 9.30999 19.4142 9.97218C20.0766 10.6344 20.4487 11.5325 20.4487 12.469C20.4487 13.4055 20.0766 14.3036 19.4142 14.9658C18.7519 15.628 17.8536 16 16.9169 16H14.4794L14.4765 8.93797Z" fill="#CE2525"/>
</g>
<defs>
<clipPath id="clip0">
<rect width="32" height="32" fill="white"/>
</clipPath>
</defs>
</svg>
