<svg width="34" height="34" viewBox="0 0 34 34" fill="none" xmlns="http://www.w3.org/2000/svg">
<g clip-path="url(#clip0)">
<path d="M17.0036 7.83313C14.5711 7.83526 12.2389 8.80179 10.5186 10.5206C8.79832 12.2395 7.83054 14.5702 7.82764 17.0014C7.82764 22.0532 11.939 26.1705 17.0007 26.1705C18.2122 26.1813 19.4139 25.9521 20.5364 25.4962C21.6589 25.0403 22.6798 24.3666 23.5404 23.5142C24.4009 22.6617 25.084 21.6473 25.5502 20.5295C26.0163 19.4118 26.2563 18.2128 26.2563 17.0018C26.2563 15.7908 26.0163 14.5918 25.5502 13.4741C25.084 12.3563 24.4009 11.3419 23.5404 10.4894C22.6798 9.63696 21.6589 8.96332 20.5364 8.5074C19.4139 8.05148 18.2122 7.82232 17.0007 7.83313H17.0036ZM21.7821 14.8693L16.1601 20.1689C16.0232 20.2956 15.8424 20.3642 15.6558 20.3603C15.4692 20.3563 15.2915 20.2801 15.1601 20.1477L12.217 17.1294C12.0863 16.995 12.0144 16.8142 12.0171 16.6269C12.0198 16.4395 12.0968 16.2608 12.2313 16.1302C12.3657 15.9996 12.5466 15.9277 12.7341 15.9304C12.9215 15.9331 13.1003 16.0101 13.2309 16.1445L15.6839 18.6671L20.7953 13.8413C20.9343 13.7122 21.1184 13.6429 21.3081 13.6482C21.4977 13.6535 21.6777 13.7331 21.8092 13.8698C21.8732 13.9372 21.9232 14.0166 21.9564 14.1033C21.9896 14.1901 22.0053 14.2826 22.0027 14.3755C22 14.4683 21.979 14.5598 21.9409 14.6445C21.9029 14.7293 21.8484 14.8056 21.7807 14.8693H21.7821Z" fill="white"/>
<path d="M32.4502 17.0014L30.2592 13.6855C30.1798 13.5557 30.1404 13.4054 30.1458 13.2534L30.3652 9.27794L26.8281 7.49239C26.6934 7.42489 26.584 7.31562 26.5165 7.18091L24.73 3.64564L20.7533 3.86499C20.6004 3.87821 20.4476 3.83817 20.3209 3.75166L17.0033 1.5625L13.6857 3.75166C13.5557 3.83087 13.4054 3.87028 13.2533 3.86499L9.27582 3.64564L7.48935 7.18164C7.42181 7.31635 7.31249 7.42562 7.17771 7.49312L3.63988 9.27867L3.85935 13.2541C3.87269 13.4069 3.83262 13.5596 3.74596 13.6862L1.55566 17.0014L3.74596 20.3173C3.82541 20.4471 3.86485 20.5974 3.85935 20.7495L3.63988 24.7242L7.18429 26.5024C7.31938 26.5697 7.42898 26.679 7.49667 26.8139L9.28314 30.3499L13.2606 30.1305H13.2957C13.4348 30.1312 13.5705 30.1732 13.6857 30.2512L17.0033 32.4411L20.3209 30.2512C20.4508 30.1718 20.6011 30.1324 20.7533 30.1378L24.73 30.3572L26.5165 26.8219C26.584 26.687 26.6933 26.5775 26.8281 26.5097L30.3652 24.7242L30.1458 20.7495C30.1326 20.5967 30.1727 20.444 30.2592 20.3173L32.4502 17.0014ZM17.0033 27.5875C11.1618 27.5875 6.41249 22.8399 6.41249 17.0014C6.41249 11.1629 11.1618 6.41609 17.0033 6.41609C22.8448 6.41609 27.5941 11.1637 27.5941 17.0014C27.5941 22.8392 22.8448 27.5875 17.0033 27.5875Z" fill="white"/>
<path d="M20.7957 13.842L15.6843 18.6678L13.2314 16.1453C13.1008 16.0108 12.9221 15.9336 12.7347 15.9308C12.5472 15.928 12.3663 15.9998 12.2317 16.1303C12.0972 16.2608 12.02 16.4394 12.0172 16.6267C12.0144 16.8141 12.0861 16.9949 12.2167 17.1294L15.159 20.1478C15.2905 20.2802 15.4682 20.3564 15.6548 20.3603C15.8413 20.3643 16.0222 20.2957 16.1591 20.169L21.7811 14.8693C21.8488 14.8057 21.9033 14.7293 21.9414 14.6445C21.9795 14.5598 22.0005 14.4684 22.0031 14.3755C22.0058 14.2826 21.99 14.1901 21.9568 14.1034C21.9236 14.0166 21.8736 13.9372 21.8097 13.8698C21.678 13.7332 21.498 13.6538 21.3084 13.6486C21.1187 13.6434 20.9346 13.7129 20.7957 13.842Z" fill="#CE2525"/>
<path d="M17.0034 6.41614C11.1619 6.41614 6.4126 11.1637 6.4126 17.0015C6.4126 22.8392 11.1619 27.5875 17.0034 27.5875C22.8449 27.5875 27.5942 22.8407 27.5942 17.0015C27.5942 11.1622 22.8449 6.41614 17.0034 6.41614ZM17.0034 26.1705C11.9417 26.1705 7.83036 22.0539 7.83036 17.0015C7.83036 15.188 8.36841 13.4152 9.37647 11.9074C10.3845 10.3995 11.8173 9.22428 13.4936 8.53032C15.17 7.83636 17.0146 7.65482 18.7941 8.00867C20.5737 8.36252 22.2083 9.23586 23.4912 10.5182C24.7742 11.8006 25.6478 13.4345 26.0017 15.2131C26.3556 16.9918 26.1738 18.8354 25.4794 20.5108C24.7849 22.1862 23.609 23.6182 22.1003 24.6256C20.5915 25.633 18.8178 26.1706 17.0034 26.1705Z" fill="#CE2525"/>
<path d="M33.8828 16.6118L31.5791 13.1021L31.8132 8.89997C31.8212 8.76191 31.7886 8.62453 31.7193 8.50483C31.65 8.38514 31.5471 8.28839 31.4233 8.22655L27.6799 6.3379L25.7866 2.59717C25.7236 2.47443 25.6265 2.37241 25.5071 2.30331C25.3876 2.2342 25.2507 2.20092 25.1128 2.20745L20.902 2.43412L17.3905 0.116996C17.2747 0.0407953 17.1392 0.000183105 17.0006 0.000183105C16.862 0.000183105 16.7264 0.0407953 16.6106 0.116996L13.0992 2.43412L8.8956 2.20014C8.75744 2.19193 8.61991 2.2245 8.50012 2.29379C8.38032 2.36308 8.28355 2.46604 8.22184 2.58986L6.33368 6.33132L2.59101 8.22289C2.46815 8.28583 2.36603 8.38281 2.29688 8.50224C2.22773 8.62167 2.19447 8.75849 2.20109 8.89631L2.43446 13.0984L0.116873 16.6052C0.0406332 16.7209 0 16.8564 0 16.9949C0 17.1334 0.0406332 17.2689 0.116873 17.3846L2.42787 20.8987L2.19451 25.1008C2.18639 25.2389 2.21901 25.3763 2.28833 25.496C2.35765 25.6157 2.4606 25.7125 2.58443 25.7742L6.32782 27.6658L8.22037 31.4073C8.28334 31.5301 8.38037 31.6321 8.49986 31.7012C8.61936 31.7704 8.75624 31.8036 8.89414 31.797L13.0984 31.563L16.6099 33.8801C16.7248 33.9586 16.8607 34.0007 16.9998 34.0007C17.139 34.0007 17.2749 33.9586 17.3898 33.8801L20.9012 31.563L25.1055 31.797C25.2437 31.805 25.3811 31.7723 25.5009 31.7031C25.6206 31.6338 25.7174 31.531 25.7793 31.4073L27.6718 27.6658L31.4152 25.7742C31.538 25.7112 31.6401 25.6142 31.7093 25.4948C31.7784 25.3754 31.8117 25.2386 31.8052 25.1008L31.5711 20.8987L33.8894 17.389C33.9642 17.2729 34.0034 17.1375 34.0022 16.9994C34.0011 16.8613 33.9596 16.7266 33.8828 16.6118ZM30.1467 20.7495L30.3662 24.7242L26.8291 26.5098C26.6942 26.5775 26.5849 26.687 26.5174 26.822L24.731 30.3573L20.7542 30.1379C20.6021 30.1324 20.4517 30.1718 20.3219 30.2513L17.0042 32.4412L13.6866 30.2513C13.5715 30.1733 13.4357 30.1313 13.2967 30.1306H13.2616L9.28406 30.35L7.49759 26.814C7.42991 26.6791 7.3203 26.5698 7.18521 26.5025L3.64007 24.725L3.85954 20.7503C3.86504 20.5982 3.8256 20.4479 3.74615 20.3181L1.55585 17.0015L3.74615 13.6856C3.83281 13.559 3.87288 13.4063 3.85954 13.2534L3.64007 9.27799L7.1779 7.49244C7.31268 7.42494 7.42201 7.31567 7.48954 7.18096L9.27602 3.64569L13.2535 3.86504C13.4056 3.87032 13.5559 3.83092 13.6859 3.75171L17.0035 1.56255L20.3211 3.75171C20.4478 3.83821 20.6006 3.87826 20.7535 3.86504L24.7302 3.64569L26.5167 7.18169C26.5842 7.31641 26.6936 7.42567 26.8284 7.49317L30.3655 9.27872L30.146 13.2542C30.1406 13.4062 30.18 13.5565 30.2594 13.6863L32.4504 17.0022L30.2594 20.3181C30.1731 20.4449 30.1333 20.5975 30.1467 20.7503V20.7495Z" fill="#013464"/>
</g>
<defs>
<clipPath id="clip0">
<rect width="34" height="34" fill="white"/>
</clipPath>
</defs>
</svg>
