<svg width="32" height="32" viewBox="0 0 32 32" fill="none" xmlns="http://www.w3.org/2000/svg">
<g clip-path="url(#clip0)">
<path d="M20.7922 17.5858C19.5065 17.5858 18.4619 18.9419 18.4619 20.6016C18.4619 22.2614 19.5072 23.6175 20.7922 23.6175C22.0772 23.6175 23.1154 22.2578 23.1154 20.6009C23.1154 18.944 22.0772 17.5858 20.7922 17.5858Z" fill="white"/>
<path d="M29.9802 13.9378C29.3653 13.0228 29.0699 11.9304 29.1397 10.8302V10.816C29.1397 10.8018 29.1326 10.7876 29.1326 10.7733C29.1699 10.0504 28.9979 9.332 28.6371 8.70436C28.2764 8.07673 27.7423 7.56649 27.0988 7.23484L27.0561 7.21351C26.0741 6.71145 25.2757 5.91207 24.7749 4.92942L24.7535 4.88675C24.4226 4.24315 23.9123 3.70921 23.2843 3.34954C22.6564 2.98986 21.9376 2.81986 21.215 2.86009C21.2008 2.86009 21.1866 2.85297 21.1724 2.85297H21.1582C20.058 2.92278 18.9656 2.62731 18.0506 2.01244C17.4375 1.61164 16.7209 1.39819 15.9884 1.39819C15.2559 1.39819 14.5393 1.61164 13.9261 2.01244C13.0112 2.62731 11.9188 2.92278 10.8186 2.85297H10.8086C10.7944 2.85297 10.7802 2.86009 10.766 2.86009C10.043 2.82275 9.32464 2.99476 8.69701 3.3555C8.06937 3.71624 7.55913 4.25038 7.22748 4.89386L7.20615 4.93653C6.7041 5.91856 5.90472 6.71694 4.92206 7.21777L4.87939 7.23911C4.23579 7.57001 3.70185 8.08032 3.34218 8.7083C2.9825 9.33628 2.8125 10.055 2.85273 10.7776C2.85273 10.7918 2.84562 10.806 2.84562 10.8203V10.8345C2.84562 10.9191 2.85984 11.0037 2.85984 11.0955C2.8611 12.1054 2.56641 13.0935 2.01219 13.9378C1.6086 14.5495 1.39287 15.266 1.39161 15.9989C1.39034 16.7318 1.6036 17.4491 2.00508 18.0622C2.62021 18.9783 2.91522 20.0721 2.84419 21.1733V21.1876C2.84419 21.2018 2.85131 21.216 2.85131 21.2302C2.81397 21.9532 2.98598 22.6716 3.34672 23.2992C3.70746 23.9268 4.2416 24.4371 4.88508 24.7687L4.92775 24.79C5.90935 25.2914 6.70768 26.0897 7.20899 27.0713L7.23033 27.114C7.56235 27.7566 8.07289 28.2898 8.7006 28.6493C9.32831 29.0088 10.0465 29.1794 10.7688 29.1406C10.783 29.1406 10.7973 29.1477 10.8115 29.1477H10.8257C10.9103 29.1477 10.995 29.1335 11.0867 29.1335C12.0973 29.1318 13.0863 29.4265 13.9311 29.9812C14.5429 30.3847 15.2594 30.6005 15.9923 30.6017C16.7252 30.603 17.4424 30.3897 18.0556 29.9883C18.9705 29.3734 20.063 29.0779 21.1631 29.1477H21.1774C21.1916 29.1477 21.2058 29.1406 21.22 29.1406C21.943 29.178 22.6613 29.0059 23.289 28.6452C23.9166 28.2845 24.4269 27.7503 24.7585 27.1068L24.7798 27.0642C25.2812 26.0826 26.0795 25.2842 27.0611 24.7829L27.1038 24.7616C27.7474 24.4307 28.2813 23.9204 28.641 23.2924C29.0006 22.6644 29.1706 21.9457 29.1304 21.2231C29.1304 21.2089 29.1375 21.1947 29.1375 21.1804V21.1662C29.1375 21.0816 29.1233 20.997 29.1233 20.9052C29.1216 19.8946 29.4163 18.9057 29.971 18.0608C30.3746 17.4494 30.5905 16.7333 30.5921 16.0007C30.5938 15.2681 30.3811 14.551 29.9802 13.9378ZM7.48562 11.392C7.48562 8.94862 9.16668 6.96391 11.2218 6.96391C13.2769 6.96391 14.958 8.94862 14.958 11.392C14.958 13.8354 13.2769 15.8272 11.2218 15.8272C9.16668 15.8272 7.48562 13.8354 7.48562 11.392ZM11.3491 25.1164C11.3013 25.1958 11.2384 25.265 11.1639 25.3201C11.0894 25.3751 11.0048 25.415 10.9148 25.4373C10.8249 25.4597 10.7315 25.4641 10.6399 25.4503C10.5483 25.4366 10.4603 25.4049 10.3809 25.3572C10.3015 25.3094 10.2323 25.2465 10.1773 25.1719C10.1222 25.0974 10.0824 25.0128 10.06 24.9229C10.0377 24.833 10.0333 24.7396 10.047 24.648C10.0608 24.5564 10.0924 24.4684 10.1402 24.389L20.6575 6.87857C20.7053 6.7992 20.7682 6.73001 20.8427 6.67495C20.9172 6.6199 21.0019 6.58005 21.0918 6.5577C21.1817 6.53535 21.2751 6.53092 21.3667 6.54468C21.4583 6.55843 21.5463 6.5901 21.6257 6.63786C21.7051 6.68563 21.7743 6.74856 21.8293 6.82307C21.8844 6.89757 21.9242 6.9822 21.9466 7.0721C21.9689 7.162 21.9734 7.25543 21.9596 7.34704C21.9458 7.43866 21.9142 7.52666 21.8664 7.60604L11.3491 25.1164ZM20.7919 25.0247C18.7297 25.0247 17.0486 23.04 17.0486 20.5966C17.0486 18.1532 18.7297 16.1685 20.7919 16.1685C22.8542 16.1685 24.5281 18.1532 24.5281 20.5966C24.5281 23.04 22.8542 25.0226 20.7919 25.0226V25.0247Z" fill="white"/>
<path d="M13.5386 11.392C13.5386 9.73231 12.4933 8.37622 11.2154 8.37622C9.93756 8.37622 8.88867 9.7252 8.88867 11.392C8.88867 13.0589 9.934 14.415 11.2119 14.415C12.4897 14.415 13.5386 13.0518 13.5386 11.392Z" fill="white"/>
<path d="M31.9999 15.999C32.0005 14.9885 31.7059 13.9998 31.1523 13.1545C30.7072 12.4825 30.494 11.6834 30.545 10.879C30.5466 10.867 30.549 10.8551 30.5521 10.8434V10.8363C30.6232 8.79542 29.5494 6.88822 27.7197 5.96306C27.7055 5.95595 27.6842 5.94884 27.6699 5.94173C26.9778 5.58138 26.4132 5.01682 26.0529 4.32466C26.0458 4.31044 26.0387 4.28911 26.0315 4.27489C25.1071 2.45302 23.1992 1.37213 21.1583 1.44253H21.1512C21.1392 1.4442 21.1273 1.44657 21.1156 1.44964C20.3116 1.49691 19.5137 1.28397 18.8401 0.842354C17.9964 0.289383 17.0097 -0.00518799 16.001 -0.00518799C14.9923 -0.00518799 14.0055 0.289383 13.1619 0.842354C12.4898 1.28739 11.6907 1.50064 10.8863 1.44964C10.8743 1.44798 10.8624 1.4456 10.8507 1.44253H10.8436C8.80701 1.3764 6.89768 2.45658 5.97323 4.27915C5.96612 4.29338 5.95901 4.31471 5.9519 4.32893C5.59222 5.02043 5.0287 5.58469 4.33768 5.94529C4.32345 5.9524 4.30212 5.95951 4.2879 5.96662C2.45892 6.88466 1.38514 8.79897 1.45554 10.8328V10.8399C1.45861 10.8516 1.46099 10.8634 1.46265 10.8754C1.46265 10.9529 1.46976 11.024 1.46976 11.0888C1.47064 11.8236 1.25416 12.5424 0.847542 13.1545C0.294571 13.9982 0 14.9849 0 15.9936C0 17.0024 0.294571 17.9891 0.847542 18.8328C1.29258 19.5048 1.50583 20.3039 1.45483 21.1083C1.45316 21.1203 1.45079 21.1322 1.44772 21.1439V21.151C1.37661 23.1919 2.45039 25.0991 4.28008 26.0242C4.2943 26.0313 4.31563 26.0384 4.32985 26.0455C5.02154 26.4056 5.58581 26.9697 5.94621 27.6612C5.95332 27.6754 5.96043 27.6968 5.96754 27.711C6.89199 29.5328 8.7999 30.6137 10.8408 30.5433H10.8479C10.8621 30.5433 10.8692 30.5362 10.8835 30.5362C10.961 30.5362 11.0321 30.5291 11.0968 30.5291C11.8328 30.5273 12.5529 30.7436 13.1661 31.1506C14.0098 31.7036 14.9965 31.9982 16.0052 31.9982C17.0139 31.9982 18.0007 31.7036 18.8443 31.1506C19.5165 30.7058 20.3155 30.4926 21.1199 30.5433C21.1319 30.545 21.1438 30.5474 21.1555 30.5504H21.4307C22.3848 30.5493 23.32 30.2841 24.1326 29.7841C24.9453 29.2842 25.6038 28.5692 26.0351 27.7181L26.0564 27.6754C26.4168 26.9833 26.9813 26.4187 27.6735 26.0583C27.6877 26.0512 27.7091 26.0441 27.7233 26.037C29.5451 25.1126 30.626 23.2047 30.5556 21.1638V21.1567C30.5526 21.145 30.5502 21.1331 30.5485 21.1211C30.5485 21.0436 30.5414 20.9725 30.5414 20.9078C30.5396 20.1717 30.7559 19.4517 31.1629 18.8384C31.7101 17.9926 32.0008 17.0064 31.9999 15.999ZM29.1398 21.1688V21.183C29.1398 21.1972 29.1327 21.2114 29.1327 21.2256C29.1729 21.9482 29.0029 22.667 28.6432 23.2949C28.2836 23.9229 27.7496 24.4332 27.106 24.7641L27.0634 24.7855C26.0818 25.2868 25.2834 26.0851 24.7821 27.0667L24.7608 27.1094C24.4291 27.7529 23.9189 28.287 23.2913 28.6477C22.6636 29.0085 21.9453 29.1805 21.2223 29.1431C21.2081 29.1431 21.1939 29.1503 21.1796 29.1503H21.1654C20.0672 29.0801 18.9764 29.3741 18.0621 29.9865C17.449 30.388 16.7317 30.6013 15.9988 30.6C15.2659 30.5987 14.5494 30.383 13.9377 29.9794C13.0928 29.4248 12.1039 29.1301 11.0932 29.1318C11.0015 29.1318 10.9169 29.146 10.8323 29.146H10.818C10.8038 29.146 10.7896 29.1389 10.7754 29.1389C10.053 29.1777 9.33486 29.0071 8.70715 28.6475C8.07944 28.288 7.5689 27.7549 7.23688 27.1122L7.21554 27.0695C6.71293 26.0872 5.91277 25.2888 4.92932 24.7883L4.88665 24.767C4.24317 24.4353 3.70903 23.9251 3.34829 23.2974C2.98755 22.6698 2.81554 21.9514 2.85288 21.2285C2.85288 21.2143 2.84576 21.2 2.84576 21.1858V21.1716C2.91642 20.0706 2.62117 18.977 2.00594 18.0612C1.60446 17.448 1.3912 16.7308 1.39247 15.9979C1.39373 15.265 1.60946 14.5485 2.01305 13.9368C2.56767 13.0919 2.86237 12.1029 2.8607 11.0923C2.8607 11.0006 2.84648 10.916 2.84648 10.8313V10.8171C2.84648 10.8029 2.85359 10.7887 2.85359 10.7744C2.81336 10.0519 2.98336 9.33312 3.34304 8.70514C3.70271 8.07716 4.23665 7.56686 4.88025 7.23595L4.92292 7.21462C5.90393 6.71374 6.70197 5.91621 7.20345 4.93551L7.22479 4.89284C7.55643 4.24936 8.06668 3.71522 8.69431 3.35448C9.32194 2.99374 10.0403 2.82173 10.7633 2.85907C10.7775 2.85907 10.7917 2.85195 10.8059 2.85195H10.8202C11.9203 2.92176 13.0127 2.62629 13.9277 2.01142C14.5408 1.61062 15.2575 1.39717 15.9899 1.39717C16.7224 1.39717 17.4391 1.61062 18.0522 2.01142C18.9671 2.62629 20.0596 2.92176 21.1597 2.85195H21.1739C21.1882 2.85195 21.2024 2.85907 21.2166 2.85907C21.9392 2.81884 22.6579 2.98884 23.2859 3.34852C23.9139 3.70819 24.4242 4.24213 24.7551 4.88573L24.7764 4.9284C25.2777 5.91 26.0761 6.70833 27.0577 7.20964L27.1003 7.23098C27.7438 7.56262 28.278 8.07286 28.6387 8.7005C28.9994 9.32813 29.1715 10.0465 29.1341 10.7695C29.1341 10.7837 29.1412 10.7979 29.1412 10.8121V10.8264C29.0704 11.9273 29.3654 13.0208 29.9803 13.9368C30.3818 14.5499 30.5951 15.2671 30.5938 16C30.5926 16.7329 30.3768 17.4494 29.9732 18.0612C29.4186 18.9061 29.1239 19.895 29.1256 20.9056C29.1256 20.996 29.1398 21.0806 29.1398 21.1652V21.1688Z" fill="#013464"/>
<path d="M21.6246 6.6389C21.464 6.54402 21.2725 6.51604 21.0915 6.56101C20.9104 6.60597 20.7543 6.72026 20.6567 6.87926L10.1415 24.3868C10.0938 24.4662 10.0621 24.5542 10.0483 24.6458C10.0346 24.7374 10.039 24.8309 10.0614 24.9208C10.0837 25.0107 10.1236 25.0953 10.1786 25.1698C10.2337 25.2443 10.3029 25.3072 10.3822 25.355C10.4616 25.4028 10.5496 25.4344 10.6412 25.4482C10.7329 25.4619 10.8263 25.4575 10.9162 25.4352C11.0061 25.4128 11.0907 25.373 11.1652 25.3179C11.2397 25.2629 11.3027 25.1937 11.3504 25.1143L21.8649 7.60886C21.9605 7.44807 21.9888 7.2561 21.9438 7.07455C21.8988 6.893 21.7841 6.73648 21.6246 6.6389Z" fill="#CE2525"/>
<path d="M14.9582 11.392C14.9582 8.94864 13.2771 6.96393 11.222 6.96393C9.16691 6.96393 7.48584 8.94864 7.48584 11.392C7.48584 13.8354 9.16691 15.8272 11.222 15.8272C13.2771 15.8272 14.9582 13.8354 14.9582 11.392ZM8.89171 11.392C8.89171 9.72517 9.93704 8.3762 11.2149 8.3762C12.4928 8.3762 13.5381 9.73229 13.5381 11.392C13.5381 13.0518 12.4928 14.415 11.2149 14.415C9.93704 14.415 8.88886 13.0582 8.88886 11.392H8.89171Z" fill="#CE2525"/>
<path d="M20.7921 16.1657C18.7299 16.1657 17.0488 18.1504 17.0488 20.5938C17.0488 23.0372 18.7299 25.0219 20.7921 25.0219C22.8543 25.0219 24.5276 23.04 24.5276 20.5938C24.5276 18.1476 22.8543 16.1657 20.7921 16.1657ZM20.7921 23.6167C19.5064 23.6167 18.4618 22.2606 18.4618 20.6009C18.4618 18.9412 19.5071 17.5851 20.7921 17.5851C22.0771 17.5851 23.1153 18.9412 23.1153 20.6009C23.1153 22.2606 22.07 23.6167 20.7921 23.6167Z" fill="#CE2525"/>
</g>
<defs>
<clipPath id="clip0">
<rect width="32" height="32" fill="white"/>
</clipPath>
</defs>
</svg>
