<svg width="32" height="32" viewBox="0 0 32 32" fill="none" xmlns="http://www.w3.org/2000/svg">
<path d="M28.667 16.667C28.5776 16.6699 28.4885 16.6549 28.4051 16.6227C28.3217 16.5905 28.2456 16.5418 28.1813 16.4797C28.117 16.4175 28.0659 16.343 28.031 16.2606C27.9962 16.1783 27.9782 16.0898 27.9782 16.0004C27.9782 15.9109 27.9962 15.8224 28.031 15.7401C28.0659 15.6577 28.117 15.5833 28.1813 15.5211C28.2456 15.4589 28.3217 15.4102 28.4051 15.378C28.4885 15.3459 28.5776 15.3308 28.667 15.3337H30.6332C30.2933 7.77885 24.2211 1.70667 16.667 1.36676V3.33298C16.6613 3.50603 16.5886 3.67009 16.4642 3.7905C16.3398 3.91091 16.1734 3.97823 16.0003 3.97823C15.8272 3.97823 15.6608 3.91091 15.5364 3.7905C15.412 3.67009 15.3393 3.50603 15.3336 3.33298V1.36676C7.77879 1.70667 1.70661 7.77885 1.3667 15.333H3.33292C3.50973 15.333 3.6793 15.4032 3.80433 15.5282C3.92935 15.6533 3.99959 15.8228 3.99959 15.9997C3.99959 16.1765 3.92935 16.346 3.80433 16.4711C3.6793 16.5961 3.50973 16.6663 3.33292 16.6663H1.3667C1.70661 24.2212 7.77879 30.2933 15.3329 30.6325V28.6663C15.3386 28.4933 15.4113 28.3292 15.5357 28.2088C15.6601 28.0884 15.8265 28.0211 15.9996 28.0211C16.1727 28.0211 16.3391 28.0884 16.4635 28.2088C16.5879 28.3292 16.6606 28.4933 16.6663 28.6663V30.6325C24.2211 30.2933 30.2933 24.2212 30.6332 16.667H28.667ZM22.4711 22.4711C22.4092 22.5331 22.3357 22.5822 22.2548 22.6158C22.1739 22.6493 22.0872 22.6666 21.9996 22.6666C21.912 22.6666 21.8253 22.6493 21.7444 22.6158C21.6635 22.5822 21.59 22.5331 21.5281 22.4711L16.3242 17.2672C16.2192 17.303 16.1099 17.325 15.9992 17.3326C15.6586 17.3333 15.3309 17.2026 15.0842 16.9678C14.8375 16.733 14.6909 16.4121 14.6747 16.0719C14.6586 15.7317 14.7743 15.3984 14.9977 15.1413C15.221 14.8842 15.535 14.7231 15.8741 14.6916L20.0618 5.71734C20.0981 5.63688 20.1501 5.56444 20.2146 5.50421C20.2792 5.44398 20.355 5.39717 20.4378 5.36648C20.5206 5.33579 20.6086 5.32183 20.6969 5.32543C20.7851 5.32902 20.8717 5.35009 20.9517 5.38741C21.0317 5.42473 21.1035 5.47756 21.1629 5.54284C21.2224 5.60811 21.2682 5.68454 21.2979 5.76769C21.3276 5.85083 21.3405 5.93904 21.3358 6.0272C21.3311 6.11535 21.309 6.20171 21.2707 6.28125L17.0801 15.2619C17.2383 15.4761 17.3267 15.7338 17.3333 16C17.3256 16.1107 17.3037 16.22 17.2679 16.325L22.4711 21.5289C22.596 21.6539 22.6662 21.8233 22.6662 22C22.6662 22.1767 22.596 22.3462 22.4711 22.4711Z" fill="white"/>
<path d="M16 0C7.17796 0 0 7.17796 0 16C0 24.822 7.17796 32 16 32C24.822 32 32 24.822 32 16C32 7.17796 24.822 0 16 0ZM16.667 30.6325V28.6663C16.6614 28.4933 16.5887 28.3292 16.4642 28.2088C16.3398 28.0884 16.1735 28.0211 16.0004 28.0211C15.8272 28.0211 15.6609 28.0884 15.5365 28.2088C15.4121 28.3292 15.3393 28.4933 15.3337 28.6663V30.6325C7.77885 30.2933 1.70667 24.2212 1.36676 16.6663H3.33298C3.50979 16.6663 3.67936 16.5961 3.80438 16.4711C3.92941 16.346 3.99964 16.1765 3.99964 15.9996C3.99964 15.8228 3.92941 15.6533 3.80438 15.5282C3.67936 15.4032 3.50979 15.333 3.33298 15.333H1.36676C1.70667 7.77884 7.77884 1.70667 15.333 1.36676V3.33298C15.3386 3.50602 15.4113 3.67009 15.5358 3.79049C15.6602 3.9109 15.8265 3.97822 15.9996 3.97822C16.1728 3.97822 16.3391 3.9109 16.4635 3.79049C16.5879 3.67009 16.6607 3.50602 16.6663 3.33298V1.36676C24.2212 1.70667 30.2933 7.77884 30.6332 15.333H28.667C28.5776 15.3301 28.4886 15.3451 28.4052 15.3773C28.3217 15.4095 28.2456 15.4582 28.1814 15.5204C28.1171 15.5825 28.066 15.657 28.0311 15.7394C27.9962 15.8217 27.9782 15.9102 27.9782 15.9996C27.9782 16.0891 27.9962 16.1776 28.0311 16.2599C28.066 16.3423 28.1171 16.4167 28.1814 16.4789C28.2456 16.5411 28.3217 16.5898 28.4052 16.622C28.4886 16.6541 28.5776 16.6692 28.667 16.6663H30.6332C30.2933 24.2212 24.2212 30.2933 16.667 30.6325Z" fill="#013464"/>
<path d="M17.268 16.325C17.3038 16.2199 17.3258 16.1107 17.3334 16C17.3268 15.7338 17.2384 15.4761 17.0802 15.2618L21.2708 6.28194C21.3091 6.20239 21.3312 6.11604 21.3359 6.02788C21.3406 5.93973 21.3277 5.85152 21.298 5.76837C21.2684 5.68523 21.2225 5.6088 21.163 5.54352C21.1036 5.47824 21.0318 5.42541 20.9518 5.38809C20.8718 5.35077 20.7852 5.32971 20.697 5.32611C20.6088 5.32252 20.5207 5.33647 20.4379 5.36716C20.3552 5.39785 20.2793 5.44467 20.2148 5.5049C20.1502 5.56513 20.0983 5.63757 20.0619 5.71803L15.8742 14.6922C15.535 14.7238 15.221 14.8849 14.9976 15.1421C14.7742 15.3993 14.6586 15.7327 14.6748 16.0729C14.6911 16.4132 14.8379 16.7341 15.0847 16.9689C15.3315 17.2036 15.6594 17.3342 16.0001 17.3333C16.1108 17.3257 16.22 17.3037 16.325 17.2679L21.529 22.4711C21.6545 22.5933 21.823 22.6612 21.9982 22.66C22.1734 22.6588 22.3411 22.5887 22.4649 22.4648C22.5888 22.341 22.6589 22.1733 22.6601 21.9981C22.6612 21.823 22.5934 21.6544 22.4712 21.5289L17.268 16.325Z" fill="#CE2525"/>
</svg>
