<svg width="31" height="30" viewBox="0 0 31 30" fill="none" xmlns="http://www.w3.org/2000/svg">
<g clip-path="url(#clip0)">
<path d="M15.4777 17.8049C16.9595 17.8049 18.1606 16.6037 18.1606 15.122C18.1606 13.6402 16.9595 12.439 15.4777 12.439C13.996 12.439 12.7949 13.6402 12.7949 15.122C12.7949 16.6037 13.996 17.8049 15.4777 17.8049Z" fill="url(#paint0_linear)"/>
<path d="M18.8315 8.53662H12.1242C11.1486 8.53662 10.295 8.84149 9.74623 9.39027C9.19745 9.93905 8.89258 10.7927 8.89258 11.7683V18.4756C8.89258 19.4512 9.19745 20.3049 9.8072 20.9146C10.4169 21.4634 11.2096 21.7683 12.1852 21.7683H18.8315C19.8071 21.7683 20.6607 21.4634 21.2095 20.9146C21.8192 20.3659 22.1241 19.5122 22.1241 18.5366V11.8293C22.1241 10.8537 21.8192 10.061 21.2704 9.45125C20.6607 8.84149 19.868 8.53662 18.8315 8.53662ZM15.4778 19.2683C13.1608 19.2683 11.3316 17.378 11.3316 15.122C11.3316 12.8049 13.2218 10.9756 15.4778 10.9756C17.7339 10.9756 19.6851 12.8049 19.6851 15.122C19.6851 17.439 17.7949 19.2683 15.4778 19.2683ZM19.8071 11.7683C19.2583 11.7683 18.8315 11.3415 18.8315 10.7927C18.8315 10.2439 19.2583 9.8171 19.8071 9.8171C20.3558 9.8171 20.7826 10.2439 20.7826 10.7927C20.7826 11.3415 20.3558 11.7683 19.8071 11.7683Z" fill="url(#paint1_linear)"/>
<path d="M15.5999 0C7.30732 0 0.600098 6.70731 0.600098 15C0.600098 23.2927 7.30732 30 15.5999 30C23.8925 30 30.5997 23.2927 30.5997 15C30.6607 6.70731 23.8925 0 15.5999 0ZM23.5876 18.5366C23.5876 19.939 23.0998 21.1585 22.2461 22.0122C21.3925 22.8659 20.173 23.2927 18.8316 23.2927H12.1853C10.8439 23.2927 9.62437 22.8659 8.77072 22.0122C7.8561 21.1585 7.42927 19.939 7.42927 18.5366V11.8293C7.42927 9.02439 9.31949 7.07317 12.1853 7.07317H18.8925C20.295 7.07317 21.4535 7.56098 22.3071 8.41463C23.1608 9.26829 23.5876 10.4268 23.5876 11.8293V18.5366Z" fill="url(#paint2_linear)"/>
</g>
<defs>
<linearGradient id="paint0_linear" x1="15.5999" y1="-3.09525e-05" x2="15.5999" y2="30" gradientUnits="userSpaceOnUse">
<stop stop-color="#EE3E61"/>
<stop offset="1" stop-color="#5D68E6"/>
</linearGradient>
<linearGradient id="paint1_linear" x1="15.6" y1="3.22365e-05" x2="15.6" y2="30" gradientUnits="userSpaceOnUse">
<stop stop-color="#EE3E61"/>
<stop offset="1" stop-color="#5D68E6"/>
</linearGradient>
<linearGradient id="paint2_linear" x1="15.6001" y1="0" x2="15.6001" y2="30" gradientUnits="userSpaceOnUse">
<stop stop-color="#EE3E61"/>
<stop offset="1" stop-color="#5D68E6"/>
</linearGradient>
<clipPath id="clip0">
<rect width="30" height="30" fill="white" transform="translate(0.600098)"/>
</clipPath>
</defs>
</svg>
