<svg width="279" height="60" viewBox="0 0 279 60" fill="none" xmlns="http://www.w3.org/2000/svg">
<g clip-path="url(#clip0)">
<path d="M48.7555 9.68407C34.2434 6.47802 25.1743 0 25.1743 0C25.1743 0 16.1052 6.47802 1.6014 9.68407L0 10.0385V38.794C0.0580818 39.3214 1.77564 51.783 24.4192 59.7527L25.166 60L25.9211 59.7527C48.573 51.783 50.2822 39.3214 50.3403 38.794V10.0385L48.7555 9.68407ZM46.1584 38.4643C45.9676 39.5522 43.7854 49.1786 25.1826 55.9286C6.50516 49.1209 4.37273 39.4863 4.19848 38.4643V13.0055C15.3751 10.3352 22.403 6.46978 25.1743 4.74725C27.9456 6.46978 34.9818 10.3269 46.1501 12.989L46.1584 38.4643Z" fill="#024178"/>
<path d="M78.6176 22.8214H75.2987C74.6929 22.8214 74.3279 23.1017 73.9462 23.8599C73.6301 24.6729 73.0674 25.3681 72.336 25.8495C71.6047 26.3308 70.7408 26.5745 69.8639 26.5467C66.6611 26.5467 64.8273 24.2143 64.8273 20.1511C64.8273 16.0879 66.6611 13.7555 69.8639 13.7555C70.6635 13.7342 71.4517 13.9481 72.1294 14.3704C72.807 14.7927 73.3438 15.4046 73.6724 16.1291C74.0374 16.8132 74.361 17.1758 75.0248 17.1758H78.3438C78.8582 17.1758 79.132 16.8709 79.132 16.2857C79.132 12.989 75.8878 9.44507 69.8722 9.44507C63.2342 9.44507 59.2847 13.4506 59.2847 20.1594C59.2847 26.8681 63.2425 30.8736 69.8722 30.8736C76.062 30.8736 79.3976 27.1978 79.3976 23.7363C79.4059 23.1346 79.132 22.8214 78.6176 22.8214Z" fill="#CE2525"/>
<path d="M100.988 10.0385H83.5133C83.4202 10.0414 83.3286 10.0633 83.2444 10.1028C83.1602 10.1423 83.085 10.1986 83.0235 10.2681C82.9621 10.3376 82.9157 10.419 82.8872 10.5071C82.8586 10.5952 82.8486 10.6881 82.8578 10.7802V29.5137C82.8486 29.6058 82.8586 29.6988 82.8872 29.7869C82.9157 29.875 82.9621 29.9563 83.0235 30.0258C83.085 30.0954 83.1602 30.1516 83.2444 30.1911C83.3286 30.2306 83.4202 30.2525 83.5133 30.2555H87.4877C87.5808 30.2525 87.6723 30.2306 87.7566 30.1911C87.8408 30.1516 87.916 30.0954 87.9774 30.0258C88.0389 29.9563 88.0853 29.875 88.1138 29.7869C88.1424 29.6988 88.1524 29.6058 88.1432 29.5137V14.4972H96.3659V29.5137C96.3568 29.6058 96.3668 29.6988 96.3953 29.7869C96.4238 29.875 96.4703 29.9563 96.5317 30.0258C96.5932 30.0954 96.6683 30.1516 96.7526 30.1911C96.8368 30.2306 96.9283 30.2525 97.0214 30.2555H100.996C101.089 30.2525 101.181 30.2306 101.265 30.1911C101.349 30.1516 101.424 30.0954 101.486 30.0258C101.547 29.9563 101.593 29.875 101.622 29.7869C101.651 29.6988 101.661 29.6058 101.651 29.5137V10.7802C101.661 10.6875 101.65 10.5938 101.621 10.5052C101.592 10.4165 101.545 10.3348 101.483 10.2652C101.42 10.1955 101.344 10.1394 101.259 10.1004C101.174 10.0614 101.081 10.0403 100.988 10.0385Z" fill="#CE2525"/>
<path d="M118.951 10.8626C118.744 10.3352 118.395 10.0385 118.014 10.0385H112.587C112.214 10.0385 111.865 10.3599 111.641 10.8626L104.232 29.6703C104.199 29.737 104.182 29.8103 104.182 29.8846C104.182 29.9589 104.199 30.0322 104.232 30.0989C104.278 30.1648 104.34 30.2177 104.413 30.2524C104.486 30.2871 104.566 30.3023 104.647 30.2967H108.887C109.108 30.2677 109.315 30.1737 109.482 30.0269C109.649 29.88 109.768 29.687 109.824 29.4725L110.82 26.6044H119.482L120.478 29.4725C120.534 29.687 120.653 29.88 120.82 30.0269C120.987 30.1737 121.195 30.2677 121.416 30.2967H125.913C125.993 30.3023 126.074 30.2871 126.147 30.2524C126.219 30.2177 126.282 30.1648 126.328 30.0989C126.361 30.0322 126.378 29.9589 126.378 29.8846C126.378 29.8103 126.361 29.737 126.328 29.6703L118.951 10.8626ZM112.438 22.2527L114.927 15.7088H115.558L117.881 22.2527H112.438Z" fill="#CE2525"/>
<path d="M138.874 10.0385H129.606C129.512 10.0414 129.421 10.0633 129.337 10.1028C129.252 10.1423 129.177 10.1986 129.116 10.2681C129.054 10.3376 129.008 10.419 128.979 10.5071C128.951 10.5952 128.941 10.6881 128.95 10.7802V29.5137C128.941 29.6058 128.951 29.6988 128.979 29.7869C129.008 29.875 129.054 29.9563 129.116 30.0258C129.177 30.0954 129.252 30.1516 129.337 30.1911C129.421 30.2306 129.512 30.2525 129.606 30.2555H133.588C133.681 30.2525 133.773 30.2306 133.857 30.1911C133.941 30.1516 134.017 30.0954 134.078 30.0258C134.139 29.9563 134.186 29.875 134.214 29.7869C134.243 29.6988 134.253 29.6058 134.244 29.5137V24.5687H138.882C144.433 24.5687 147.744 21.8489 147.744 17.283C147.744 12.717 144.425 10.0385 138.874 10.0385ZM138.874 20.4478H134.235V14.2005H138.874C139.305 14.1589 139.741 14.2096 140.15 14.3494C140.56 14.4893 140.935 14.7148 141.25 15.011C141.565 15.3071 141.812 15.6668 141.974 16.0659C142.137 16.4649 142.211 16.894 142.193 17.3242C142.21 17.7536 142.135 18.1818 141.972 18.5799C141.808 18.9779 141.561 19.3366 141.247 19.6318C140.932 19.927 140.558 20.1519 140.148 20.2912C139.739 20.4305 139.304 20.4811 138.874 20.4396V20.4478Z" fill="#CE2525"/>
<path d="M167.491 24.1484C165.832 20.761 164.098 20.1346 164.081 20.1346L163.89 20.0687V19.3352L164.081 19.2693C164.081 19.2693 165.74 18.6594 167.101 15.8489L169.59 10.6401C169.622 10.5774 169.638 10.5083 169.638 10.4382C169.638 10.3681 169.622 10.299 169.59 10.2363C169.545 10.1678 169.482 10.1131 169.407 10.0782C169.332 10.0433 169.249 10.0296 169.167 10.0385H165.118C164.806 9.99473 164.489 10.0584 164.219 10.2188C163.948 10.3793 163.742 10.6269 163.633 10.9204L161.144 16.1209C160.959 16.65 160.599 17.1011 160.123 17.4005C159.647 17.7 159.082 17.83 158.522 17.7693H156.265V10.7802C156.274 10.6882 156.264 10.5952 156.235 10.5071C156.207 10.419 156.16 10.3377 156.099 10.2681C156.038 10.1986 155.962 10.1423 155.878 10.1028C155.794 10.0633 155.702 10.0414 155.609 10.0385H151.635C151.542 10.0414 151.45 10.0633 151.366 10.1028C151.282 10.1423 151.207 10.1986 151.145 10.2681C151.084 10.3377 151.037 10.419 151.009 10.5071C150.98 10.5952 150.97 10.6882 150.979 10.7802V29.5138C150.97 29.6058 150.98 29.6988 151.009 29.7869C151.037 29.875 151.084 29.9563 151.145 30.0259C151.207 30.0954 151.282 30.1517 151.366 30.1912C151.45 30.2307 151.542 30.2526 151.635 30.2555H155.609C155.702 30.2526 155.794 30.2307 155.878 30.1912C155.962 30.1517 156.038 30.0954 156.099 30.0259C156.16 29.9563 156.207 29.875 156.235 29.7869C156.264 29.6988 156.274 29.6058 156.265 29.5138V22.2528H158.92C159.48 22.192 160.045 22.322 160.521 22.6215C160.997 22.9209 161.357 23.3721 161.542 23.9011L164.189 29.3984C164.297 29.6903 164.503 29.9367 164.771 30.0971C165.04 30.2574 165.355 30.322 165.666 30.2802H169.773C169.855 30.2892 169.938 30.2754 170.013 30.2405C170.087 30.2056 170.151 30.1509 170.196 30.0824C170.228 30.0197 170.244 29.9506 170.244 29.8805C170.244 29.8104 170.228 29.7413 170.196 29.6786L167.491 24.1484Z" fill="#CE2525"/>
<path d="M189.388 10.0385H174.561C174.468 10.0414 174.376 10.0633 174.292 10.1028C174.208 10.1423 174.132 10.1986 174.071 10.2681C174.009 10.3376 173.963 10.419 173.935 10.5071C173.906 10.5952 173.896 10.6881 173.905 10.7802V29.5137C173.896 29.6058 173.906 29.6988 173.935 29.7869C173.963 29.875 174.009 29.9563 174.071 30.0258C174.132 30.0954 174.208 30.1516 174.292 30.1911C174.376 30.2306 174.468 30.2525 174.561 30.2555H178.535C178.628 30.2525 178.72 30.2306 178.804 30.1911C178.888 30.1516 178.963 30.0954 179.025 30.0258C179.086 29.9563 179.133 29.875 179.161 29.7869C179.19 29.6988 179.2 29.6058 179.191 29.5137V14.4972H189.396C189.489 14.4943 189.581 14.4724 189.665 14.4329C189.749 14.3934 189.825 14.3371 189.886 14.2676C189.948 14.1981 189.994 14.1167 190.022 14.0286C190.051 13.9405 190.061 13.8476 190.052 13.7555V10.7802C190.061 10.6875 190.051 10.5938 190.022 10.5052C189.993 10.4165 189.946 10.3348 189.883 10.2652C189.821 10.1955 189.745 10.1394 189.66 10.1004C189.574 10.0614 189.482 10.0403 189.388 10.0385Z" fill="#024178"/>
<path d="M202.755 10.0385H193.495C193.402 10.0414 193.311 10.0633 193.226 10.1028C193.142 10.1423 193.067 10.1986 193.005 10.2681C192.944 10.3376 192.898 10.419 192.869 10.5071C192.841 10.5952 192.831 10.6881 192.84 10.7802V29.5137C192.831 29.6058 192.841 29.6988 192.869 29.7869C192.898 29.875 192.944 29.9563 193.005 30.0258C193.067 30.0954 193.142 30.1516 193.226 30.1911C193.311 30.2306 193.402 30.2525 193.495 30.2555H197.478C197.571 30.2525 197.663 30.2306 197.747 30.1911C197.831 30.1516 197.906 30.0954 197.968 30.0258C198.029 29.9563 198.076 29.875 198.104 29.7869C198.133 29.6988 198.143 29.6058 198.133 29.5137V24.5687H202.772C208.323 24.5687 211.633 21.8489 211.633 17.283C211.633 12.717 208.306 10.0385 202.755 10.0385ZM202.755 20.4478H198.117V14.2005H202.755C203.186 14.1589 203.622 14.2096 204.032 14.3494C204.442 14.4893 204.817 14.7148 205.131 15.011C205.446 15.3071 205.693 15.6668 205.856 16.0659C206.018 16.4649 206.093 16.894 206.074 17.3242C206.091 17.7536 206.016 18.1818 205.853 18.5799C205.69 18.9779 205.443 19.3366 205.128 19.6318C204.814 19.927 204.439 20.1519 204.03 20.2912C203.62 20.4305 203.186 20.4811 202.755 20.4396V20.4478Z" fill="#024178"/>
<path d="M233.538 10.2362C233.476 10.1626 233.397 10.1052 233.307 10.0693C233.217 10.0334 233.12 10.0199 233.024 10.0302H229.182C228.938 10.0317 228.702 10.1134 228.51 10.2625C228.318 10.4116 228.181 10.6198 228.12 10.8544L225.399 18.956H223.092C222.03 18.956 221.217 18.272 220.719 16.9862L218.47 10.8873C218.402 10.6554 218.262 10.4508 218.07 10.3028C217.878 10.1547 217.643 10.0709 217.4 10.0632H213.426C213.326 10.0526 213.226 10.0666 213.133 10.104C213.04 10.1414 212.958 10.201 212.894 10.2774C212.864 10.3434 212.848 10.4151 212.848 10.4876C212.848 10.5602 212.864 10.6319 212.894 10.6978L215.143 16.7884C216.869 21.4698 219.059 23.2912 222.968 23.2912H224.03L223.781 24.1154C223.639 24.5979 223.345 25.0223 222.941 25.3253C222.538 25.6282 222.046 25.7936 221.54 25.7967H221.275C220.944 25.7781 220.616 25.7256 220.296 25.6401C220.011 25.5652 219.719 25.5183 219.425 25.5H218.221C218.128 25.5029 218.037 25.5248 217.953 25.5643C217.868 25.6038 217.793 25.6601 217.732 25.7296C217.67 25.7992 217.624 25.8805 217.595 25.9686C217.567 26.0567 217.557 26.1497 217.566 26.2417V29.5384C217.557 29.6305 217.567 29.7235 217.595 29.8116C217.624 29.8997 217.67 29.981 217.732 30.0505C217.793 30.1201 217.868 30.1764 217.953 30.2159C218.037 30.2554 218.128 30.2773 218.221 30.2802H221.54C225.407 30.2802 227.78 28.3269 229.224 23.934L233.563 10.7143C233.597 10.6381 233.612 10.5553 233.608 10.4723C233.603 10.3894 233.58 10.3085 233.538 10.2362Z" fill="#024178"/>
<path d="M255.045 10.0385H237.571C237.478 10.0414 237.386 10.0633 237.302 10.1028C237.218 10.1423 237.143 10.1986 237.081 10.2681C237.02 10.3376 236.973 10.419 236.945 10.5071C236.916 10.5952 236.906 10.6881 236.915 10.7802V29.5137C236.906 29.6058 236.916 29.6988 236.945 29.7869C236.973 29.875 237.02 29.9563 237.081 30.0258C237.143 30.0954 237.218 30.1516 237.302 30.1911C237.386 30.2306 237.478 30.2525 237.571 30.2555H241.545C241.638 30.2525 241.73 30.2306 241.814 30.1911C241.898 30.1516 241.974 30.0954 242.035 30.0258C242.097 29.9563 242.143 29.875 242.171 29.7869C242.2 29.6988 242.21 29.6058 242.201 29.5137V14.4972H250.424V29.5137C250.414 29.6058 250.424 29.6988 250.453 29.7869C250.481 29.875 250.528 29.9563 250.589 30.0258C250.651 30.0954 250.726 30.1516 250.81 30.1911C250.894 30.2306 250.986 30.2525 251.079 30.2555H255.054C255.147 30.2525 255.238 30.2306 255.322 30.1911C255.407 30.1516 255.482 30.0954 255.543 30.0258C255.605 29.9563 255.651 29.875 255.68 29.7869C255.708 29.6988 255.718 29.6058 255.709 29.5137V10.7802C255.718 10.6875 255.708 10.5938 255.679 10.5052C255.65 10.4165 255.603 10.3348 255.54 10.2652C255.478 10.1955 255.402 10.1394 255.317 10.1004C255.231 10.0614 255.139 10.0403 255.045 10.0385Z" fill="#024178"/>
<path d="M278.345 10.0385H260.87C260.777 10.0414 260.686 10.0633 260.601 10.1028C260.517 10.1423 260.442 10.1986 260.38 10.2681C260.319 10.3376 260.273 10.419 260.244 10.5071C260.216 10.5952 260.206 10.6881 260.215 10.7802V29.5137C260.206 29.6058 260.216 29.6988 260.244 29.7869C260.273 29.875 260.319 29.9563 260.38 30.0258C260.442 30.0954 260.517 30.1516 260.601 30.1911C260.686 30.2306 260.777 30.2525 260.87 30.2555H264.845C264.938 30.2525 265.029 30.2306 265.114 30.1911C265.198 30.1516 265.273 30.0954 265.334 30.0258C265.396 29.9563 265.442 29.875 265.471 29.7869C265.499 29.6988 265.509 29.6058 265.5 29.5137V14.4972H273.723V29.5137C273.714 29.6058 273.724 29.6988 273.752 29.7869C273.781 29.875 273.827 29.9563 273.889 30.0258C273.95 30.0954 274.025 30.1516 274.11 30.1911C274.194 30.2306 274.285 30.2525 274.378 30.2555H278.353C278.446 30.2525 278.537 30.2306 278.622 30.1911C278.706 30.1516 278.781 30.0954 278.843 30.0258C278.904 29.9563 278.95 29.875 278.979 29.7869C279.007 29.6988 279.017 29.6058 279.008 29.5137V10.7802C279.018 10.6875 279.007 10.5938 278.978 10.5052C278.949 10.4165 278.902 10.3348 278.84 10.2652C278.777 10.1955 278.701 10.1394 278.616 10.1004C278.531 10.0614 278.438 10.0403 278.345 10.0385Z" fill="#024178"/>
<path d="M65.5492 48.3709V42.3297H61.8403V48.3709H60.5708V41.2088H66.8353V48.3544L65.5492 48.3709Z" fill="#515151"/>
<path d="M69.7809 44.8022C69.7907 44.0823 70.0146 43.3813 70.4244 42.7874C70.8343 42.1935 71.4117 41.7333 72.0842 41.4645C72.7566 41.1957 73.4941 41.1304 74.2038 41.2769C74.9135 41.4233 75.5638 41.7748 76.0729 42.2874C76.582 42.7999 76.9271 43.4505 77.065 44.1574C77.2028 44.8642 77.1272 45.5958 76.8476 46.2601C76.568 46.9243 76.0969 47.4917 75.4935 47.8907C74.8902 48.2897 74.1815 48.5027 73.4567 48.5028C72.9655 48.518 72.4766 48.4323 72.0204 48.2511C71.5641 48.0699 71.1505 47.797 70.8054 47.4496C70.4603 47.1022 70.1912 46.6877 70.0149 46.2321C69.8386 45.7766 69.759 45.2898 69.7809 44.8022ZM75.8463 44.8022C75.806 44.3433 75.6322 43.9059 75.346 43.5435C75.0599 43.181 74.6737 42.9091 74.2346 42.7609C73.7955 42.6126 73.3224 42.5945 72.8732 42.7087C72.4239 42.823 72.0178 43.0646 71.7044 43.4041C71.3909 43.7436 71.1838 44.1664 71.1081 44.6209C71.0324 45.0753 71.0915 45.5418 71.2781 45.9635C71.4647 46.3852 71.7709 46.7439 72.1592 46.9957C72.5475 47.2476 73.0012 47.3817 73.465 47.3819C73.7956 47.3808 74.1225 47.3116 74.4248 47.1787C74.7272 47.0457 74.9984 46.8519 75.2215 46.6094C75.4445 46.3669 75.6145 46.0811 75.7206 45.77C75.8267 45.459 75.8667 45.1294 75.838 44.8022H75.8463Z" fill="#515151"/>
<path d="M79.3896 48.3709L82.5261 44.5962L79.6054 41.2088H81.1653L83.7126 44.2912V41.2088H84.9738V44.2912L87.5211 41.2088H89.081L86.1603 44.5797L89.2968 48.3544H87.7451L85.3306 45.3297L84.9738 45.75V48.3462H83.7126V45.7747L83.3558 45.3544L80.9413 48.3626L79.3896 48.3709Z" fill="#515151"/>
<path d="M96.9053 48.3709L96.3826 46.978H93.0637L92.5326 48.3462H91.0972L93.9432 41.2088H95.5197L98.3491 48.3544L96.9053 48.3709ZM94.7231 42.4863L93.4287 45.8901H96.0175L94.7231 42.4863Z" fill="#515151"/>
<path d="M100.855 48.3709V41.2088H104.016C104.324 41.1902 104.632 41.2344 104.921 41.3384C105.211 41.4425 105.476 41.6043 105.7 41.8139C105.924 42.0235 106.103 42.2765 106.225 42.5572C106.347 42.838 106.41 43.1406 106.41 43.4464C106.41 43.7522 106.347 44.0548 106.225 44.3356C106.103 44.6163 105.924 44.8693 105.7 45.0789C105.476 45.2885 105.211 45.4503 104.921 45.5544C104.632 45.6585 104.324 45.7026 104.016 45.6841H102.116V48.3544L100.855 48.3709ZM105.07 43.4258C105.072 43.2689 105.04 43.1134 104.978 42.9691C104.916 42.8249 104.824 42.6951 104.709 42.5881C104.593 42.4811 104.456 42.3992 104.307 42.3476C104.158 42.296 104 42.2758 103.842 42.2884H102.116V44.5632H103.842C103.996 44.5755 104.151 44.5566 104.297 44.5075C104.444 44.4584 104.579 44.3801 104.694 44.2776C104.808 44.175 104.901 44.0502 104.966 43.9108C105.031 43.7715 105.066 43.6204 105.07 43.467V43.4258Z" fill="#515151"/>
<path d="M114.147 48.3709V45.2555H110.405V48.3709H109.144V41.2088H110.405V44.1346H114.147V41.2088H115.409V48.3544L114.147 48.3709Z" fill="#515151"/>
<path d="M123.698 48.3709L123.175 46.978H119.856L119.325 48.3462H117.906L120.736 41.2088H122.312L125.142 48.3544L123.698 48.3709ZM121.516 42.4863L120.221 45.8901H122.802L121.516 42.4863Z" fill="#515151"/>
<path d="M127.324 48.3709L129.083 45.5605C128.587 45.4834 128.137 45.2253 127.823 44.8366C127.508 44.4479 127.351 43.9566 127.382 43.4588C127.369 43.1529 127.422 42.8478 127.537 42.5636C127.651 42.2794 127.825 42.0225 128.047 41.8099C128.269 41.5974 128.534 41.4339 128.824 41.3303C129.114 41.2267 129.423 41.1853 129.73 41.2088H132.891V48.3544H131.63V45.7006H130.377L128.784 48.3709H127.324ZM131.63 44.5962V42.3297H129.904C129.601 42.3297 129.309 42.4495 129.095 42.6628C128.88 42.8761 128.759 43.1654 128.759 43.4671C128.759 43.7687 128.88 44.058 129.095 44.2713C129.309 44.4846 129.601 44.6044 129.904 44.6044L131.63 44.5962Z" fill="#515151"/>
<path d="M145.578 41.2088V42.3132H141.886V43.8791H143.786C144.093 43.8606 144.401 43.9047 144.691 44.0088C144.98 44.1129 145.245 44.2747 145.469 44.4843C145.694 44.6939 145.872 44.9468 145.994 45.2276C146.117 45.5083 146.18 45.8109 146.18 46.1168C146.18 46.4226 146.117 46.7252 145.994 47.006C145.872 47.2867 145.694 47.5397 145.469 47.7493C145.245 47.9589 144.98 48.1207 144.691 48.2247C144.401 48.3288 144.093 48.3729 143.786 48.3544H140.625V41.2088H145.578ZM141.886 45V47.2747H143.612C143.762 47.2747 143.911 47.2453 144.05 47.1882C144.189 47.131 144.315 47.0472 144.421 46.9416C144.528 46.836 144.612 46.7106 144.669 46.5726C144.727 46.4346 144.757 46.2867 144.757 46.1374C144.757 45.988 144.727 45.8401 144.669 45.7021C144.612 45.5641 144.528 45.4388 144.421 45.3331C144.315 45.2275 144.189 45.1437 144.05 45.0866C143.911 45.0294 143.762 45 143.612 45H141.886Z" fill="#515151"/>
<path d="M148.93 48.3709V41.2088H153.859V42.3132H150.183V44.1676H153.776V45.272H150.183V47.2583H153.851V48.3626L148.93 48.3709Z" fill="#515151"/>
<path d="M156.373 47.3406L157.053 46.5165C157.332 46.7931 157.663 47.0121 158.028 47.1606C158.392 47.3091 158.783 47.3844 159.177 47.3819C160.198 47.3819 160.837 46.9533 160.837 46.2857C160.837 45.6181 160.198 45.2802 159.102 45.2802H157.65V44.1841H159.094C160.007 44.1841 160.754 43.8956 160.754 43.2445C160.754 42.5934 160.04 42.239 159.16 42.239C158.416 42.243 157.703 42.5393 157.177 43.0632L156.53 42.2802C156.883 41.9089 157.31 41.6162 157.785 41.4216C158.26 41.2269 158.771 41.1347 159.285 41.1511C160.837 41.1511 162.023 41.8764 162.023 43.0797C162.002 43.4935 161.834 43.8865 161.548 44.1884C161.262 44.4904 160.878 44.6816 160.463 44.728C160.907 44.7643 161.321 44.9618 161.627 45.2826C161.934 45.6035 162.11 46.0251 162.123 46.467C162.123 47.6786 160.936 48.5439 159.277 48.5439C158.733 48.5729 158.189 48.4798 157.686 48.2715C157.184 48.0632 156.735 47.745 156.373 47.3406Z" fill="#515151"/>
<path d="M164.745 44.8022C164.755 44.0829 164.978 43.3826 165.387 42.7891C165.796 42.1956 166.373 41.7353 167.044 41.466C167.716 41.1968 168.452 41.1305 169.162 41.2756C169.871 41.4207 170.521 41.7706 171.031 42.2815C171.541 42.7924 171.887 43.4415 172.027 44.1473C172.167 44.853 172.093 45.5841 171.816 46.2487C171.539 46.9132 171.071 47.4817 170.469 47.8827C169.868 48.2837 169.161 48.4994 168.437 48.5027C167.945 48.5203 167.454 48.4363 166.996 48.2561C166.537 48.0759 166.122 47.8034 165.775 47.4558C165.428 47.1081 165.157 46.6928 164.98 46.2361C164.803 45.7794 164.723 45.2912 164.745 44.8022ZM170.81 44.8022C170.77 44.3429 170.596 43.9053 170.309 43.5426C170.023 43.18 169.636 42.9081 169.196 42.7602C168.757 42.6122 168.284 42.5946 167.834 42.7095C167.385 42.8244 166.979 43.0668 166.665 43.4071C166.352 43.7474 166.146 44.1709 166.071 44.6259C165.996 45.0809 166.057 45.5476 166.244 45.9692C166.432 46.3907 166.74 46.7488 167.129 46.9996C167.519 47.2505 167.973 47.3833 168.437 47.3818C168.768 47.3808 169.095 47.3116 169.397 47.1786C169.699 47.0457 169.971 46.8518 170.194 46.6094C170.417 46.3669 170.587 46.0811 170.693 45.77C170.799 45.4589 170.839 45.1294 170.81 44.8022Z" fill="#515151"/>
<path d="M180.054 48.3709V42.3297H176.312V48.3709H175.075V41.2088H181.34V48.3544L180.054 48.3709Z" fill="#515151"/>
<path d="M189.604 48.3709L189.081 46.978H185.762L185.231 48.3462H183.796L186.642 41.2088H188.218L191.048 48.3544L189.604 48.3709ZM187.422 42.4863L186.127 45.8901H188.716L187.422 42.4863Z" fill="#515151"/>
<path d="M193.23 44.8022C193.216 44.3082 193.304 43.8166 193.49 43.358C193.675 42.8995 193.953 42.4837 194.308 42.1366C194.662 41.7895 195.084 41.5184 195.548 41.3404C196.012 41.1623 196.508 41.0811 197.005 41.1016C197.591 41.0924 198.169 41.2407 198.677 41.5309C199.186 41.821 199.606 42.2423 199.893 42.75L198.814 43.2939C198.628 42.9812 198.363 42.7215 198.046 42.5396C197.73 42.3577 197.371 42.2599 197.005 42.2555C196.341 42.2928 195.716 42.5812 195.259 43.0617C194.802 43.5422 194.547 44.1782 194.547 44.8393C194.547 45.5003 194.802 46.1364 195.259 46.6168C195.716 47.0973 196.341 47.3858 197.005 47.4231C197.371 47.4202 197.731 47.3231 198.048 47.1411C198.365 46.959 198.629 46.6984 198.814 46.3846L199.893 46.9286C199.604 47.4351 199.184 47.8554 198.676 48.1453C198.168 48.4353 197.591 48.5844 197.005 48.5769C196.502 48.5981 195.999 48.5148 195.53 48.3323C195.06 48.1498 194.634 47.8721 194.279 47.5169C193.924 47.1617 193.647 46.7368 193.466 46.2694C193.286 45.802 193.205 45.3023 193.23 44.8022Z" fill="#515151"/>
<path d="M207.643 48.3709V45.2555H203.9V48.3709H202.639V41.2088H203.9V44.1346H207.643V41.2088H208.904V48.3544L207.643 48.3709Z" fill="#515151"/>
<path d="M211.841 44.8022C211.851 44.0823 212.075 43.3813 212.484 42.7874C212.894 42.1935 213.472 41.7333 214.144 41.4645C214.817 41.1957 215.554 41.1304 216.264 41.2769C216.974 41.4233 217.624 41.7748 218.133 42.2874C218.642 42.7999 218.987 43.4505 219.125 44.1574C219.263 44.8642 219.187 45.5958 218.908 46.2601C218.628 46.9243 218.157 47.4917 217.554 47.8907C216.95 48.2897 216.242 48.5027 215.517 48.5028C215.026 48.518 214.537 48.4323 214.08 48.2511C213.624 48.0699 213.211 47.797 212.866 47.4496C212.52 47.1022 212.251 46.6877 212.075 46.2321C211.899 45.7766 211.819 45.2898 211.841 44.8022ZM217.906 44.8022C217.866 44.3433 217.692 43.9059 217.406 43.5435C217.12 43.181 216.734 42.9091 216.295 42.7609C215.856 42.6126 215.383 42.5945 214.933 42.7087C214.484 42.823 214.078 43.0646 213.764 43.4041C213.451 43.7436 213.244 44.1664 213.168 44.6209C213.092 45.0753 213.152 45.5418 213.338 45.9635C213.525 46.3852 213.831 46.7439 214.219 46.9957C214.608 47.2476 215.061 47.3817 215.525 47.3819C215.856 47.3808 216.183 47.3116 216.485 47.1787C216.787 47.0457 217.058 46.8519 217.282 46.6094C217.505 46.3669 217.675 46.0811 217.781 45.77C217.887 45.459 217.927 45.1294 217.898 44.8022H217.906Z" fill="#515151"/>
<path d="M221.814 44.8022C221.8 44.3082 221.889 43.8166 222.074 43.358C222.26 42.8995 222.538 42.4837 222.892 42.1366C223.246 41.7895 223.668 41.5184 224.133 41.3404C224.597 41.1623 225.093 41.0811 225.59 41.1016C226.176 41.0924 226.754 41.2407 227.262 41.5309C227.77 41.821 228.19 42.2423 228.477 42.75L227.399 43.2939C227.212 42.9812 226.948 42.7215 226.631 42.5396C226.314 42.3577 225.956 42.2599 225.59 42.2555C224.925 42.2928 224.3 42.5812 223.843 43.0617C223.386 43.5422 223.131 44.1782 223.131 44.8393C223.131 45.5003 223.386 46.1364 223.843 46.6168C224.3 47.0973 224.925 47.3858 225.59 47.4231C225.956 47.4202 226.315 47.3231 226.632 47.1411C226.949 46.959 227.213 46.6984 227.399 46.3846L228.477 46.9286C228.189 47.4351 227.769 47.8554 227.261 48.1453C226.753 48.4353 226.176 48.5844 225.59 48.5769C225.086 48.5981 224.584 48.5148 224.114 48.3323C223.645 48.1498 223.219 47.8721 222.864 47.5169C222.508 47.1617 222.232 46.7368 222.051 46.2694C221.87 45.802 221.79 45.3023 221.814 44.8022Z" fill="#515151"/>
<path d="M232.941 48.3709V42.3297H230.759V41.2088H236.376V42.3132H234.194V48.3544L232.941 48.3709Z" fill="#515151"/>
<path d="M240.434 41.2088V43.8791H242.334C242.641 43.8606 242.949 43.9047 243.238 44.0088C243.528 44.1129 243.793 44.2747 244.017 44.4843C244.241 44.6939 244.42 44.9468 244.542 45.2276C244.664 45.5083 244.727 45.8109 244.727 46.1168C244.727 46.4226 244.664 46.7252 244.542 47.006C244.42 47.2867 244.241 47.5397 244.017 47.7493C243.793 47.9589 243.528 48.1207 243.238 48.2247C242.949 48.3288 242.641 48.3729 242.334 48.3544H239.172V41.2088H240.434ZM240.434 44.9835V47.2583H242.159C242.463 47.2583 242.754 47.1384 242.969 46.9251C243.184 46.7118 243.304 46.4225 243.304 46.1209C243.304 45.8192 243.184 45.53 242.969 45.3167C242.754 45.1034 242.463 44.9835 242.159 44.9835H240.434Z" fill="#515151"/>
<path d="M30.7502 23.0192C30.7502 23.0192 31.6712 26.1429 26.6596 32.6209C21.648 39.0989 22.1707 42.9148 22.7349 45.2143C22.7349 45.2143 32.7582 38.1923 32.559 30.272C32.559 30.272 35.9859 38.4148 26.0622 45.4533C26.0622 45.4533 35.4299 45.4533 36.8488 36.9148C38.2676 28.3764 30.7502 23.0192 30.7502 23.0192Z" fill="#CE2525"/>
<path d="M25.1327 13.0961C25.1327 13.0961 24.303 19.3269 18.4948 26.0439C13.8233 31.4093 13.4417 34.434 13.4417 34.434C13.4417 34.434 11.8983 41.3077 20.7434 44.9835C20.7434 44.9835 17.4244 39.6428 25.3733 29.934C32.0527 21.7417 25.1327 13.0961 25.1327 13.0961Z" fill="#CE2525"/>
</g>
<defs>
<clipPath id="clip0">
<rect width="279" height="60" fill="white"/>
</clipPath>
</defs>
</svg>
