<svg width="16" height="16" viewBox="0 0 16 16" fill="none" xmlns="http://www.w3.org/2000/svg">
<g clip-path="url(#clip0)">
<path d="M15.5434 11.3069L12.0434 9.80694C11.8939 9.74322 11.7277 9.72979 11.5699 9.76868C11.4121 9.80757 11.2712 9.89667 11.1684 10.0226L9.61844 11.9163C7.18586 10.7694 5.22819 8.81171 4.08125 6.37913L5.975 4.82913C6.10115 4.72653 6.19044 4.58562 6.22934 4.42774C6.26825 4.26986 6.25466 4.1036 6.19062 3.95413L4.69062 0.45413C4.62035 0.293008 4.49605 0.161457 4.33917 0.0821615C4.18229 0.00286567 4.00266 -0.0192048 3.83125 0.0197557L0.58125 0.769755C0.41599 0.807917 0.268545 0.900967 0.16298 1.03372C0.0574141 1.16647 -3.80691e-05 1.33108 1.89256e-08 1.50069C1.89256e-08 9.51631 6.49687 16.0007 14.5 16.0007C14.6697 16.0008 14.8343 15.9434 14.9672 15.8378C15.1 15.7322 15.1931 15.5847 15.2312 15.4194L15.9812 12.1694C16.02 11.9972 15.9974 11.8168 15.9175 11.6594C15.8376 11.502 15.7053 11.3774 15.5434 11.3069Z" fill="#CE2525"/>
</g>
<defs>
<clipPath id="clip0">
<rect width="16" height="16" fill="white"/>
</clipPath>
</defs>
</svg>
