<svg width="19" height="19" viewBox="0 0 19 19" fill="none" xmlns="http://www.w3.org/2000/svg">
<path d="M18.64 7.08047C18.7848 6.96543 19 7.07305 19 7.25488V14.8438C19 15.8271 18.2021 16.625 17.2188 16.625H1.78125C0.797852 16.625 0 15.8271 0 14.8438V7.25859C0 7.07305 0.211523 6.96914 0.359961 7.08418C1.19121 7.72988 2.29336 8.55 6.07852 11.2998C6.86152 11.8713 8.18262 13.0736 9.5 13.0662C10.8248 13.0773 12.1719 11.849 12.9252 11.2998C16.7104 8.55 17.8088 7.72617 18.64 7.08047ZM9.5 11.875C10.3609 11.8898 11.6004 10.7914 12.2238 10.3387C17.1482 6.76504 17.523 6.45332 18.6586 5.5627C18.8738 5.3957 19 5.13594 19 4.86133V4.15625C19 3.17285 18.2021 2.375 17.2188 2.375H1.78125C0.797852 2.375 0 3.17285 0 4.15625V4.86133C0 5.13594 0.126172 5.39199 0.341406 5.5627C1.47695 6.44961 1.85176 6.76504 6.77617 10.3387C7.39961 10.7914 8.63906 11.8898 9.5 11.875Z" fill="white"/>
</svg>
