<svg width="22" height="19" viewBox="0 0 22 19" fill="none" xmlns="http://www.w3.org/2000/svg">
<path d="M20.1712 11.1818L21.9768 3.46301C22.1072 2.9057 21.6712 2.375 21.083 2.375H6.08086L5.73077 0.712129C5.64354 0.297654 5.26816 0 4.83271 0H0.916667C0.410399 0 0 0.39874 0 0.890625V1.48438C0 1.97626 0.410399 2.375 0.916667 2.375H3.58581L6.26889 15.1197C5.627 15.4783 5.19444 16.1508 5.19444 16.9219C5.19444 18.0696 6.15206 19 7.33333 19C8.51461 19 9.47222 18.0696 9.47222 16.9219C9.47222 16.3402 9.22598 15.8147 8.82964 15.4375H16.837C16.4407 15.8147 16.1944 16.3402 16.1944 16.9219C16.1944 18.0696 17.1521 19 18.3333 19C19.5146 19 20.4722 18.0696 20.4722 16.9219C20.4722 16.0991 19.98 15.3881 19.2661 15.0514L19.4768 14.1505C19.6072 13.5932 19.1712 13.0625 18.5829 13.0625H8.33086L8.08088 11.875H19.2774C19.7054 11.875 20.0764 11.5873 20.1712 11.1818Z" fill="#024178"/>
</svg>
