<svg width="16" height="17" viewBox="0 0 16 17" fill="none" xmlns="http://www.w3.org/2000/svg">
<path d="M7.55556 8.5C9.94028 8.5 11.873 6.59746 11.873 4.25C11.873 1.90254 9.94028 0 7.55556 0C5.17083 0 3.2381 1.90254 3.2381 4.25C3.2381 6.59746 5.17083 8.5 7.55556 8.5ZM10.5778 9.5625H10.0145C9.26567 9.90117 8.43254 10.0938 7.55556 10.0938C6.67857 10.0938 5.84881 9.90117 5.09663 9.5625H4.53333C2.03056 9.5625 0 11.5613 0 14.025V15.4062C0 16.2861 0.725198 17 1.61905 17H13.4921C14.3859 17 15.1111 16.2861 15.1111 15.4062V14.025C15.1111 11.5613 13.0806 9.5625 10.5778 9.5625Z" fill="white"/>
</svg>
