<svg width="30" height="30" viewBox="0 0 30 30" fill="none" xmlns="http://www.w3.org/2000/svg">
<g clip-path="url(#clip0)">
<path d="M15 0C12.0333 0 9.13319 0.879734 6.66645 2.52796C4.19971 4.17618 2.27713 6.51886 1.14181 9.25975C0.00649953 12.0006 -0.290551 15.0166 0.288227 17.9263C0.867006 20.8361 2.29561 23.5088 4.3934 25.6066C6.49119 27.7044 9.16393 29.133 12.0736 29.7118C14.9833 30.2906 17.9993 29.9935 20.7402 28.8582C23.4811 27.7229 25.8238 25.8003 27.472 23.3335C29.1202 20.8668 30 17.9667 30 15C30 11.0217 28.4196 7.20644 25.6066 4.3934C22.7935 1.58035 18.9782 0 15 0ZM23.5936 21.5775L20.9625 21.615C20.9625 21.615 20.3984 21.7273 19.6524 21.2166C18.6684 20.5401 17.7406 18.7861 17.0187 19.016C16.2968 19.246 16.3101 20.8262 16.3101 20.8262C16.3134 21.011 16.2572 21.1919 16.1497 21.3422C15.9991 21.4726 15.8128 21.5546 15.615 21.5775H14.4385C14.4385 21.5775 11.8396 21.7353 9.55348 19.3529C7.05883 16.754 4.85562 11.5989 4.85562 11.5989C4.85562 11.5989 4.72995 11.262 4.85562 11.0989C4.98129 10.9358 5.43316 10.9037 5.43316 10.9037L8.24599 10.885C8.40838 10.9153 8.56298 10.9781 8.70054 11.0695C8.80636 11.1585 8.88972 11.2712 8.94385 11.3984C9.25283 12.1506 9.61008 12.8821 10.0134 13.5882C11.1898 15.6203 11.7353 16.0642 12.1363 15.8476C12.7166 15.5294 12.5428 12.9759 12.5428 12.9759C12.5428 12.9759 12.5428 12.0481 12.2486 11.639C12.0231 11.3877 11.7107 11.231 11.3743 11.2005C11.2166 11.1791 11.4759 10.8128 11.8128 10.6471C12.3182 10.3984 13.2139 10.3797 14.27 10.3957C14.7349 10.3774 15.2001 10.4233 15.6524 10.5321C16.623 10.7674 16.2941 11.6711 16.2941 13.8422C16.2941 14.5374 16.1684 15.516 16.6711 15.8396C16.8877 15.9786 17.4144 15.861 18.7326 13.6203C19.1541 12.8785 19.5196 12.1063 19.8262 11.3102C19.8868 11.1831 19.9789 11.0736 20.0936 10.992C20.2116 10.9325 20.3447 10.9093 20.4759 10.9251L23.4385 10.9064C23.4385 10.9064 24.3289 10.7995 24.4732 11.2005C24.6176 11.6016 24.1417 12.6069 22.9305 14.2192C20.9438 16.8663 20.7219 16.6257 22.3716 18.1497C23.9465 19.6123 24.2727 20.3235 24.3262 20.4118C24.9679 21.4946 23.5936 21.5775 23.5936 21.5775Z" fill="#4A76A8"/>
</g>
<defs>
<clipPath id="clip0">
<rect width="30" height="30" fill="white"/>
</clipPath>
</defs>
</svg>
